<svg viewBox="0 0 1400 800" xmlns="http://www.w3.org/2000/svg">
    <!-- Definitions for Gradients, Shadows, and Markers -->
    <defs>
        <!-- Background Anti-Gravity Gradient -->
        <radialGradient id="bg-glow" cx="85%" cy="15%" r="70%" fx="80%" fy="10%">
            <stop offset="0%" stop-color="#e0e7ff" stop-opacity="0.7"/>
            <stop offset="40%" stop-color="#f3e8ff" stop-opacity="0.3"/>
            <stop offset="100%" stop-color="#ffffff" stop-opacity="0"/>
        </radialGradient>

        <radialGradient id="bg-glow-bottom" cx="10%" cy="90%" r="60%">
            <stop offset="0%" stop-color="#e0f2fe" stop-opacity="0.5"/>
            <stop offset="100%" stop-color="#ffffff" stop-opacity="0"/>
        </radialGradient>

        <!-- Card Shadow -->
        <filter id="card-shadow" x="-10%" y="-10%" width="120%" height="120%">
            <feDropShadow dx="0" dy="8" stdDeviation="12" flood-color="#0f172a" flood-opacity="0.04"/>
            <feDropShadow dx="0" dy="2" stdDeviation="4" flood-color="#0f172a" flood-opacity="0.02"/>
        </filter>

        <!-- Small Node Shadow -->
        <filter id="node-shadow" x="-20%" y="-20%" width="140%" height="140%">
            <feDropShadow dx="0" dy="2" stdDeviation="3" flood-color="#0f172a" flood-opacity="0.06"/>
        </filter>

        <!-- Arrow Head -->
        <marker id="arrow" viewBox="0 0 10 10" refX="9" refY="5" markerWidth="6" markerHeight="6" orient="auto-start-reverse">
            <path d="M 0 1 L 10 5 L 0 9 z" fill="#94a3b8"/>
        </marker>
        
        <marker id="arrow-blue" viewBox="0 0 10 10" refX="9" refY="5" markerWidth="6" markerHeight="6" orient="auto-start-reverse">
            <path d="M 0 1 L 10 5 L 0 9 z" fill="#3b82f6"/>
        </marker>

        <!-- Icon Gradients -->
        <linearGradient id="icon-grad" x1="0%" y1="0%" x2="100%" y2="100%">
            <stop offset="0%" stop-color="#3b82f6"/>
            <stop offset="100%" stop-color="#8b5cf6"/>
        </linearGradient>
    </defs>

    <!-- Canvas Background -->
    <rect width="1400" height="800" fill="#ffffff"/>
    <circle cx="1200" cy="100" r="800" fill="url(#bg-glow)"/>
    <circle cx="100" cy="700" r="600" fill="url(#bg-glow-bottom)"/>

    <!-- ==========================================
         CONNECTIONS (Drawn first so they are behind cards)
         ========================================== -->
    <g fill="none" stroke="#cbd5e1" stroke-width="1.5" stroke-linecap="round" stroke-linejoin="round">
        <!-- Input to STAR -->
        <path d="M 230 260 L 230 290" marker-end="url(#arrow)"/>
        
        <!-- STAR to Backbone -->
        <path d="M 380 390 C 420 390, 440 250, 484 250" marker-end="url(#arrow)"/>
        
        <!-- STAR to Retrieval -->
        <path d="M 380 450 C 420 450, 440 540, 484 540" marker-end="url(#arrow)"/>

        <!-- Backbone to Decoder -->
        <path d="M 800 250 L 914 250" marker-end="url(#arrow)"/>
        
        <!-- Decoder to Fusion Point -->
        <path d="M 1070 460 L 1070 474" marker-end="url(#arrow)"/>
        
        <!-- Retrieval to Fusion Point (Curves up early to stay visible) -->
        <path d="M 800 540 C 860 540, 900 490, 1054 490" marker-end="url(#arrow)"/>

        <!-- Fusion to Output -->
        <path d="M 1070 506 L 1070 516" marker-end="url(#arrow)"/>

        <!-- Decoder Internal Lines (MLP to MC Dropout) -->
        <path d="M 1064 300 L 1064 344" marker-end="url(#arrow)"/>
    </g>

    <!-- ==========================================
         STAGE 1: INPUT & DECOMPOSITION (Left Column)
         ========================================== -->
    <!-- Multivariate Input Card -->
    <g transform="translate(80, 200)">
        <rect width="300" height="80" rx="16" fill="#ffffff" stroke="#e2e8f0" stroke-width="1" filter="url(#card-shadow)"/>
        
        <!-- Icon -->
        <g transform="translate(24, 28)">
            <path d="M0 12 L 6 4 L 12 16 L 18 8 L 24 14" fill="none" stroke="url(#icon-grad)" stroke-width="2" stroke-linecap="round" stroke-linejoin="round"/>
            <path d="M0 20 L 8 14 L 14 22 L 20 12 L 24 16" fill="none" stroke="#94a3b8" stroke-width="1.5" stroke-linecap="round" stroke-linejoin="round" opacity="0.5"/>
        </g>
        
        <text x="64" y="36" font-family="sans-serif" font-size="15" font-weight="600" fill="#0f172a">Multivariate Time-Series</text>
        <text x="64" y="56" font-family="sans-serif" font-size="13" font-weight="400" fill="#64748b">Raw input features &amp; context</text>
    </g>

    <!-- STAR Decomposition Card -->
    <g transform="translate(80, 300)">
        <rect width="300" height="240" rx="16" fill="#ffffff" stroke="#e2e8f0" stroke-width="1" filter="url(#card-shadow)"/>
        
        <g transform="translate(24, 24)">
            <rect width="32" height="32" rx="8" fill="#f0f9ff"/>
            <path d="M8 16 L 12 10 L 16 20 L 20 12 L 24 16" fill="none" stroke="#0ea5e9" stroke-width="2" stroke-linecap="round" stroke-linejoin="round"/>
        </g>
        
        <text x="68" y="44" font-family="sans-serif" font-size="16" font-weight="600" fill="#0f172a">STAR Decomposition</text>
        
        <!-- Internal Blocks -->
        <g transform="translate(24, 80)">
            <!-- Seasonality (S) -->
            <rect x="0" y="0" width="252" height="32" rx="6" fill="#f8fafc" stroke="#e2e8f0" stroke-width="1"/>
            <text x="12" y="20" font-family="sans-serif" font-size="12" font-weight="500" fill="#334155">Seasonality (S)</text>
            <path d="M 180 20 Q 186 10 192.5 20 T 205 20 T 217.5 20 T 230 20" fill="none" stroke="#64748b" stroke-width="1.5" stroke-linecap="round"/>
            
            <!-- Trend (T) -->
            <rect x="0" y="40" width="252" height="32" rx="6" fill="#f8fafc" stroke="#e2e8f0" stroke-width="1"/>
            <text x="12" y="60" font-family="sans-serif" font-size="12" font-weight="500" fill="#334155">Trend (T)</text>
            <path d="M 180 65 C 195 65, 210 50, 230 50" fill="none" stroke="#64748b" stroke-width="1.5" stroke-linecap="round"/>
            
            <!-- Anomaly (A) -->
            <rect x="0" y="80" width="252" height="32" rx="6" fill="#f8fafc" stroke="#e2e8f0" stroke-width="1"/>
            <text x="12" y="100" font-family="sans-serif" font-size="12" font-weight="500" fill="#334155">Anomaly (A)</text>
            <path d="M 180 100 L 195 100 L 202 88 L 208 100 L 230 100" fill="none" stroke="#64748b" stroke-width="1.5" stroke-linecap="round" stroke-linejoin="round"/>
            <circle cx="202" cy="88" r="2" fill="#3b82f6"/>
            
            <!-- Residual (R) -->
            <rect x="0" y="120" width="252" height="32" rx="6" fill="#f8fafc" stroke="#e2e8f0" stroke-width="1"/>
            <text x="12" y="140" font-family="sans-serif" font-size="12" font-weight="500" fill="#334155">Residual (R)</text>
            <path d="M 180 140 L 188 134 L 195 146 L 205 132 L 215 145 L 230 136" fill="none" stroke="#64748b" stroke-width="1.5" stroke-linecap="round" stroke-linejoin="round"/>
        </g>
    </g>


    <!-- ==========================================
         STAGE 2: REPRESENTATION & RETRIEVAL (Middle Column)
         ========================================== -->
    <!-- Backbone Encoder Card -->
    <g transform="translate(490, 180)">
        <rect width="300" height="140" rx="16" fill="#ffffff" stroke="#e2e8f0" stroke-width="1" filter="url(#card-shadow)"/>
        
        <g transform="translate(24, 24)">
            <rect width="32" height="32" rx="8" fill="#f5f3ff"/>
            <path d="M8 12 L 24 12 M8 16 L 24 16 M8 20 L 24 20 M12 8 L 12 24" fill="none" stroke="#8b5cf6" stroke-width="2" stroke-linecap="round" stroke-linejoin="round"/>
        </g>

        <text x="68" y="44" font-family="sans-serif" font-size="16" font-weight="600" fill="#0f172a">Backbone Encoder</text>
        <text x="68" y="62" font-family="sans-serif" font-size="12" font-weight="400" fill="#64748b">Deep temporal representation</text>

        <!-- Model Options -->
        <g transform="translate(24, 110)">
            <text x="126" y="0" font-family="sans-serif" font-size="14" font-weight="500" fill="#475569" text-anchor="middle">(GRU, Informer, TimeMixer)</text>
        </g>
    </g>

    <!-- Retrieval Architecture Card -->
    <g transform="translate(490, 440)">
        <rect width="300" height="180" rx="16" fill="#ffffff" stroke="#e2e8f0" stroke-width="1" filter="url(#card-shadow)"/>
        
        <g transform="translate(24, 24)">
            <rect width="32" height="32" rx="8" fill="#ecfdf5"/>
            <!-- Database / Search Icon -->
            <path d="M8 12 C 8 10, 24 10, 24 12 C 24 14, 8 14, 8 12 Z M8 12 L 8 20 C 8 22, 24 22, 24 20 L 24 12" fill="none" stroke="#10b981" stroke-width="1.5" stroke-linecap="round" stroke-linejoin="round"/>
            <circle cx="18" cy="20" r="4" fill="#ffffff" stroke="#10b981" stroke-width="1.5"/>
            <line x1="21" y1="23" x2="25" y2="27" stroke="#10b981" stroke-width="1.5" stroke-linecap="round"/>
        </g>

        <text x="68" y="44" font-family="sans-serif" font-size="16" font-weight="600" fill="#0f172a">Retrieval Architecture</text>
        <text x="68" y="62" font-family="sans-serif" font-size="12" font-weight="400" fill="#64748b">External knowledge augmented</text>

        <g transform="translate(24, 90)">
            <rect x="0" y="0" width="252" height="60" rx="8" fill="#f8fafc" stroke="#e2e8f0" stroke-width="1"/>
            
            <path d="M 20 30 L 40 30 M 30 20 L 30 40" fill="none" stroke="#94a3b8" stroke-width="1.5" stroke-linecap="round"/>
            <circle cx="30" cy="30" r="14" fill="none" stroke="#94a3b8" stroke-width="1.5"/>
            
            <text x="60" y="28" font-family="sans-serif" font-size="13" font-weight="500" fill="#334155">Query External Catalog</text>
            <text x="60" y="46" font-family="sans-serif" font-size="11" font-weight="400" fill="#64748b">k-NN Feature matching &amp; fusion</text>
        </g>
    </g>


    <!-- ==========================================
         STAGE 3: DECODING & UNCERTAINTY (Right Column)
         ========================================== -->
    <!-- MLP Decoder & MC Dropout Mega-Card -->
    <g transform="translate(920, 200)">
        <rect width="300" height="260" rx="16" fill="#ffffff" stroke="#e2e8f0" stroke-width="1" filter="url(#card-shadow)"/>
        
        <text x="32" y="36" font-family="sans-serif" font-size="16" font-weight="600" fill="#0f172a">Prediction Head</text>
        <text x="32" y="54" font-family="sans-serif" font-size="12" font-weight="400" fill="#64748b">Non-linear projection &amp; sampling</text>

        <!-- MLP Block -->
        <g transform="translate(32, 80)">
            <rect x="0" y="0" width="236" height="56" rx="8" fill="#f8fafc" stroke="#e2e8f0" stroke-width="1"/>
            <text x="118" y="32" font-family="sans-serif" font-size="14" font-weight="600" fill="#334155" text-anchor="middle">MLP Decoder</text>
            <!-- little nodes visual -->
            <circle cx="30" cy="28" r="3" fill="#94a3b8"/><circle cx="42" cy="28" r="3" fill="#cbd5e1"/><circle cx="54" cy="28" r="3" fill="#e2e8f0"/>
            <circle cx="206" cy="28" r="3" fill="#94a3b8"/><circle cx="194" cy="28" r="3" fill="#cbd5e1"/><circle cx="182" cy="28" r="3" fill="#e2e8f0"/>
        </g>

        <!-- MC Dropout Block -->
        <g transform="translate(32, 170)">
            <rect x="0" y="0" width="236" height="64" rx="8" fill="#f8fafc" stroke="#e2e8f0" stroke-width="1"/>
            
            <g transform="translate(16, 20)">
                <rect width="24" height="24" rx="4" fill="#none" stroke="#64748b" stroke-width="1.5"/>
                <circle cx="8" cy="8" r="1.5" fill="#64748b"/>
                <circle cx="16" cy="16" r="1.5" fill="#64748b"/>
                <circle cx="8" cy="16" r="1.5" fill="#64748b"/>
                <circle cx="16" cy="8" r="1.5" fill="#64748b"/>
            </g>

            <text x="56" y="27" font-family="sans-serif" font-size="13" font-weight="600" fill="#334155">MC Dropout</text>
            <text x="56" y="45" font-family="sans-serif" font-size="11" font-weight="400" fill="#64748b">Stochastic uncertainty sampling</text>
        </g>
    </g>

    <!-- Fusion Node Badge (Positioned at the merge point) -->
    <g transform="translate(1054, 474)">
        <circle cx="16" cy="16" r="16" fill="#ffffff" stroke="#cbd5e1" stroke-width="1.5" filter="url(#node-shadow)"/>
        <path d="M 10 16 L 22 16 M 16 10 L 16 22" fill="none" stroke="#3b82f6" stroke-width="2" stroke-linecap="round"/>
    </g>

    <!-- Final Output Chart Card -->
    <g transform="translate(920, 520)">
        <rect width="300" height="140" rx="16" fill="#ffffff" stroke="#e2e8f0" stroke-width="1" filter="url(#card-shadow)"/>
        
        <text x="24" y="30" font-family="sans-serif" font-size="14" font-weight="600" fill="#0f172a">Point Forecast</text>
        
        <!-- Chart Visual -->
        <g transform="translate(24, 50)">
            <!-- Divider Line -->
            <line x1="190" y1="0" x2="190" y2="60" stroke="#cbd5e1" stroke-dasharray="4 4" stroke-width="1"/>
            <text x="185" y="8" font-family="sans-serif" font-size="9" font-weight="500" fill="#64748b" text-anchor="end">Input</text>
            <text x="195" y="8" font-family="sans-serif" font-size="9" font-weight="500" fill="#3b82f6" text-anchor="start">Predict</text>

            <!-- Axes -->
            <path d="M 0 60 L 252 60" fill="none" stroke="#e2e8f0" stroke-width="1"/>
            <path d="M 0 0 L 0 60" fill="none" stroke="#e2e8f0" stroke-width="1"/>
            
            <!-- Input Line (80%) -->
            <path d="M 10 50 Q 40 30 70 45 T 130 25 T 190 40" fill="none" stroke="#64748b" stroke-width="2.5" stroke-linecap="round"/>
            
            <!-- Prediction Line (20%) -->
            <path d="M 190 40 C 210 45, 225 15, 245 -15" fill="none" stroke="#3b82f6" stroke-width="2.5" stroke-linecap="round"/>
            
            <!-- History Line (dashed start) -->
            <path d="M -10 55 L 10 50" fill="none" stroke="#94a3b8" stroke-width="2" stroke-dasharray="3 3"/>
        </g>
    </g>

</svg>